<svg id="svg" version="1.1" xmlns="http://www.w3.org/2000/svg" xmlns:xlink="http://www.w3.org/1999/xlink" width="400" height="400" viewBox="0, 0, 400,400"><g id="svgg"><path id="path0" d="M43.200 210.200 C 43.200 211.000,43.000 211.200,42.200 211.200 C 41.400 211.200,41.200 211.400,41.200 212.200 C 41.200 213.000,41.000 213.200,40.200 213.200 C 39.267 213.200,39.200 213.333,39.200 215.200 C 39.200 217.067,39.133 217.200,38.200 217.200 C 37.400 217.200,37.200 217.400,37.200 218.200 C 37.200 219.183,37.147 219.200,34.000 219.200 C 30.853 219.200,30.800 219.183,30.800 218.200 C 30.800 217.400,30.600 217.200,29.800 217.200 C 28.867 217.200,28.800 217.067,28.800 215.200 C 28.800 213.333,28.733 213.200,27.800 213.200 C 27.000 213.200,26.800 213.000,26.800 212.200 C 26.800 211.281,26.653 211.200,25.000 211.200 C 23.347 211.200,23.200 211.281,23.200 212.200 C 23.200 213.000,23.000 213.200,22.200 213.200 C 21.249 213.200,21.200 213.312,21.206 215.500 C 21.209 216.765,21.349 217.585,21.516 217.322 C 21.683 217.059,22.175 216.898,22.610 216.963 C 23.044 217.028,23.777 216.835,24.239 216.535 C 25.254 215.874,26.987 216.997,27.662 218.753 C 29.761 224.211,29.745 223.876,30.045 269.800 C 30.199 293.340,30.485 313.590,30.680 314.800 C 31.451 319.585,35.391 326.212,39.349 329.382 C 42.985 332.295,44.764 333.059,50.339 334.103 C 51.891 334.394,100.296 334.601,204.600 334.763 L 356.600 335.000 358.500 335.936 C 360.647 336.993,360.687 337.128,359.584 339.560 C 358.603 341.722,359.228 342.800,361.462 342.800 C 362.623 342.800,362.800 342.667,362.800 341.800 C 362.800 341.000,363.000 340.800,363.800 340.800 C 364.600 340.800,364.800 340.600,364.800 339.800 C 364.800 339.000,365.000 338.800,365.800 338.800 C 366.600 338.800,366.800 338.600,366.800 337.800 C 366.800 337.000,367.000 336.800,367.800 336.800 C 368.600 336.800,368.800 336.600,368.800 335.800 C 368.800 335.000,369.000 334.800,369.800 334.800 L 370.800 334.800 370.800 328.800 L 370.800 322.800 371.800 322.800 L 372.800 322.800 372.800 269.000 L 372.800 215.200 371.800 215.200 C 371.000 215.200,370.800 215.000,370.800 214.200 C 370.800 213.267,370.667 213.200,368.800 213.200 C 366.933 213.200,366.800 213.133,366.800 212.200 L 366.800 211.200 353.800 211.200 L 340.800 211.200 340.800 210.200 C 340.800 209.204,340.787 209.200,337.000 209.200 L 333.200 209.200 333.200 212.200 C 333.200 215.133,333.178 215.200,332.200 215.200 C 331.400 215.200,331.200 215.400,331.200 216.200 C 331.200 217.133,331.067 217.200,329.200 217.200 C 327.333 217.200,327.200 217.267,327.200 218.200 C 327.200 219.044,327.013 219.200,326.000 219.200 C 324.987 219.200,324.800 219.044,324.800 218.200 C 324.800 217.400,324.600 217.200,323.800 217.200 C 323.000 217.200,322.800 217.000,322.800 216.200 C 322.800 215.400,322.600 215.200,321.800 215.200 C 321.000 215.200,320.800 215.000,320.800 214.200 C 320.800 213.229,320.720 213.200,318.000 213.200 L 315.200 213.200 315.200 214.958 C 315.200 216.920,316.858 219.200,318.286 219.200 C 320.115 219.200,322.213 222.683,322.790 226.677 C 323.307 230.251,323.300 258.197,322.781 261.800 C 322.038 266.963,317.977 273.936,314.798 275.509 C 312.498 276.647,311.047 276.234,310.868 274.390 C 310.629 271.922,307.200 269.874,307.200 272.200 C 307.200 273.133,307.067 273.200,305.200 273.200 C 303.333 273.200,303.200 273.267,303.200 274.200 C 303.200 275.178,303.133 275.200,300.200 275.200 C 297.267 275.200,297.200 275.222,297.200 276.200 L 297.200 277.200 293.200 277.200 L 289.200 277.200 289.200 278.200 L 289.200 279.200 195.200 279.200 L 101.200 279.200 101.200 280.200 C 101.200 281.183,101.147 281.200,98.000 281.200 C 94.853 281.200,94.800 281.183,94.800 280.200 C 94.800 279.222,94.733 279.200,91.800 279.200 C 88.867 279.200,88.800 279.178,88.800 278.200 C 88.800 277.400,88.600 277.200,87.800 277.200 C 87.000 277.200,86.800 277.000,86.800 276.200 C 86.800 275.400,86.600 275.200,85.800 275.200 C 84.867 275.200,84.800 275.067,84.800 273.200 C 84.800 271.333,84.733 271.200,83.800 271.200 C 82.822 271.200,82.800 271.133,82.800 268.200 C 82.800 265.267,82.778 265.200,81.800 265.200 L 80.800 265.200 80.800 240.200 L 80.800 215.200 79.800 215.200 C 79.000 215.200,78.800 215.000,78.800 214.200 C 78.800 213.267,78.667 213.200,76.800 213.200 C 74.933 213.200,74.800 213.133,74.800 212.200 L 74.800 211.200 61.800 211.200 L 48.800 211.200 48.800 210.200 C 48.800 209.229,48.720 209.200,46.000 209.200 C 43.280 209.200,43.200 209.229,43.200 210.200 " stroke="none" fill="#4ca3f9" fill-rule="evenodd"></path><path id="path1" d="M45.420 61.360 C 44.333 61.870,42.436 62.205,39.657 62.379 L 35.515 62.638 33.357 64.956 C 30.864 67.634,30.879 67.600,32.218 67.600 C 33.165 67.600,35.200 66.041,35.200 65.316 C 35.200 64.087,46.190 63.899,48.147 65.094 C 49.824 66.117,56.945 66.178,198.800 66.386 L 346.200 66.602 349.371 67.503 C 355.797 69.328,362.386 74.233,365.019 79.151 C 368.683 85.993,368.792 87.723,368.797 138.751 L 368.800 180.902 370.367 183.751 C 372.649 187.898,372.785 189.134,371.219 191.492 L 369.952 193.400 371.499 193.519 C 375.965 193.863,377.100 189.969,374.448 183.400 C 373.871 181.969,373.781 176.848,373.601 135.000 L 373.400 88.200 372.271 85.000 C 370.051 78.706,366.939 73.383,364.020 70.885 C 362.579 69.651,360.680 67.973,359.800 67.154 C 357.961 65.444,353.210 62.821,350.000 61.745 C 347.562 60.927,350.948 60.944,135.620 60.700 C 49.318 60.603,46.998 60.620,45.420 61.360 M93.400 126.404 C 92.740 126.587,91.145 126.947,89.856 127.205 C 85.832 128.011,80.064 134.146,78.869 138.891 C 77.334 144.989,77.003 178.112,78.439 182.000 C 80.674 188.053,80.716 189.682,78.693 191.978 L 77.441 193.400 78.597 193.534 C 82.797 194.021,84.548 192.538,83.428 189.444 C 81.716 184.712,81.552 182.127,81.679 161.925 C 81.812 140.680,81.732 141.392,84.356 138.104 C 85.017 137.277,86.193 135.307,86.971 133.726 C 88.852 129.904,90.078 129.015,94.717 128.115 C 98.316 127.416,99.324 126.741,97.500 126.252 C 96.328 125.938,94.892 125.991,93.400 126.404 M324.396 185.608 C 323.755 186.806,324.205 187.142,325.789 186.646 C 327.389 186.145,327.539 185.809,326.426 185.214 C 325.308 184.615,324.883 184.698,324.396 185.608 M31.798 187.024 C 28.544 190.371,28.501 191.325,31.706 189.046 C 32.754 188.302,34.156 187.467,34.824 187.190 C 36.318 186.571,36.249 185.453,34.707 185.274 C 33.853 185.176,33.229 185.552,31.798 187.024 M24.686 312.400 C 24.537 314.270,24.306 316.267,24.173 316.837 C 24.020 317.492,24.145 318.088,24.513 318.456 C 24.833 318.776,25.221 319.479,25.375 320.019 C 26.765 324.883,27.821 326.978,29.867 328.935 C 31.033 330.050,32.461 331.713,33.041 332.630 C 33.620 333.547,34.712 334.591,35.467 334.952 C 37.021 335.692,37.064 335.725,39.799 338.195 C 41.838 340.036,42.691 340.349,43.490 339.550 C 44.250 338.790,41.269 335.782,37.809 333.822 C 36.375 333.009,35.200 331.934,34.360 330.665 C 33.659 329.606,32.129 328.034,30.961 327.171 C 29.343 325.976,28.786 325.292,28.623 324.301 C 27.751 318.980,27.398 317.380,26.397 314.200 C 25.773 312.220,25.194 310.240,25.110 309.800 C 25.026 309.360,24.835 310.530,24.686 312.400 " stroke="none" fill="#433581" fill-rule="evenodd"></path><path id="path2" d="M36.126 64.518 C 35.645 64.765,35.077 65.352,34.862 65.823 C 34.648 66.294,33.909 67.112,33.221 67.640 C 29.802 70.265,29.196 70.931,28.764 72.533 C 28.316 74.196,27.372 75.814,25.862 77.503 C 23.961 79.629,24.011 78.039,24.024 136.000 C 24.033 178.502,24.146 190.857,24.532 191.761 L 25.027 192.921 27.014 190.838 C 34.955 182.511,38.564 182.233,41.792 189.702 C 43.812 194.376,45.859 194.989,52.600 192.937 C 56.061 191.884,56.641 191.833,67.600 191.621 C 73.870 191.499,79.211 191.263,79.469 191.095 C 80.698 190.297,80.342 187.155,78.439 182.000 C 77.676 179.936,77.626 178.874,77.616 164.800 C 77.600 139.896,78.075 137.160,83.363 131.670 C 86.892 128.006,87.405 127.726,92.647 126.603 L 97.400 125.585 200.400 125.702 L 303.400 125.820 306.798 126.915 C 311.486 128.427,312.373 129.371,312.816 133.323 C 313.172 136.500,313.730 137.942,315.340 139.856 C 317.317 142.205,317.361 142.742,317.464 165.546 C 317.550 184.641,317.629 186.969,318.213 187.614 C 319.044 188.533,320.770 188.021,322.096 186.462 C 325.452 182.518,331.757 184.119,334.620 189.641 C 335.783 191.885,335.502 191.856,354.132 191.619 C 374.939 191.353,374.647 191.494,370.382 183.767 L 368.800 180.902 368.797 138.751 C 368.792 87.723,368.683 85.993,365.019 79.151 C 362.386 74.233,355.797 69.328,349.371 67.503 L 346.200 66.602 198.800 66.386 C 79.997 66.212,51.090 66.070,49.800 65.654 C 46.229 64.502,37.558 63.782,36.126 64.518 " stroke="none" fill="#05045a" fill-rule="evenodd"></path><path id="path3" d="M45.200 56.200 C 45.200 57.000,45.000 57.200,44.200 57.200 C 43.397 57.200,43.200 57.399,43.200 58.213 C 43.200 59.465,44.111 59.860,45.519 59.219 C 46.917 58.581,349.824 58.601,351.501 59.238 C 352.087 59.461,353.564 60.314,354.783 61.132 C 356.003 61.951,357.450 62.821,358.000 63.065 C 358.550 63.309,360.010 64.384,361.244 65.454 C 362.477 66.524,364.614 68.206,365.991 69.192 C 368.439 70.944,368.562 71.123,371.512 77.192 C 376.156 86.746,375.707 80.912,376.025 135.800 C 376.310 185.024,376.392 187.410,377.800 187.404 C 378.595 187.400,378.601 187.098,378.701 135.300 L 378.803 83.200 377.801 83.200 C 376.822 83.200,376.800 83.135,376.800 80.200 C 376.800 77.267,376.778 77.200,375.800 77.200 C 375.000 77.200,374.800 77.000,374.800 76.200 C 374.800 75.400,374.600 75.200,373.800 75.200 C 372.822 75.200,372.800 75.133,372.800 72.200 C 372.800 69.267,372.778 69.200,371.800 69.200 C 371.000 69.200,370.800 69.000,370.800 68.200 C 370.800 67.400,370.600 67.200,369.800 67.200 C 369.000 67.200,368.800 67.000,368.800 66.200 C 368.800 65.267,368.667 65.200,366.800 65.200 C 364.933 65.200,364.800 65.133,364.800 64.200 C 364.800 63.400,364.600 63.200,363.800 63.200 C 363.000 63.200,362.800 63.000,362.800 62.200 C 362.800 61.267,362.667 61.200,360.800 61.200 C 358.933 61.200,358.800 61.133,358.800 60.200 C 358.800 59.400,358.600 59.200,357.800 59.200 C 357.000 59.200,356.800 59.000,356.800 58.200 C 356.800 57.057,351.510 56.596,351.065 57.700 C 350.954 57.975,350.849 57.525,350.832 56.700 L 350.800 55.200 198.000 55.200 L 45.200 55.200 45.200 56.200 M33.200 60.200 C 33.200 61.000,33.000 61.200,32.200 61.200 C 31.400 61.200,31.200 61.400,31.200 62.200 C 31.200 63.000,31.000 63.200,30.200 63.200 C 29.400 63.200,29.200 63.400,29.200 64.200 C 29.200 65.000,29.000 65.200,28.200 65.200 C 27.400 65.200,27.200 65.400,27.200 66.200 C 27.200 67.000,27.000 67.200,26.200 67.200 C 25.400 67.200,25.200 67.400,25.200 68.200 C 25.200 69.000,25.000 69.200,24.200 69.200 C 23.279 69.200,23.200 69.345,23.200 71.027 C 23.200 73.394,24.823 73.514,26.040 71.236 C 26.440 70.486,26.955 69.685,27.184 69.456 C 27.413 69.227,27.600 68.736,27.600 68.363 C 27.600 67.975,28.026 67.580,28.600 67.436 C 29.150 67.298,29.600 67.004,29.600 66.782 C 29.600 66.561,30.055 66.207,30.610 65.996 C 31.166 65.785,31.726 65.337,31.855 65.000 C 32.802 62.532,35.366 61.200,39.171 61.200 C 41.855 61.200,41.887 61.187,41.698 60.200 C 41.509 59.210,41.466 59.200,37.353 59.200 L 33.200 59.200 33.200 60.200 M21.200 74.600 C 21.200 76.378,23.004 76.720,23.430 75.023 C 23.751 73.744,23.377 73.200,22.176 73.200 C 21.327 73.200,21.200 73.382,21.200 74.600 M19.200 137.000 L 19.200 196.800 20.200 196.800 C 21.000 196.800,21.200 197.000,21.200 197.800 C 21.200 198.772,21.278 198.800,24.027 198.800 L 26.853 198.800 26.727 197.709 C 26.617 196.762,26.369 196.579,24.854 196.322 C 22.802 195.974,22.190 195.284,21.620 192.680 C 21.044 190.048,21.055 83.315,21.631 80.813 C 22.224 78.240,21.868 77.200,20.392 77.200 L 19.200 77.200 19.200 137.000 M96.491 128.693 C 95.551 128.778,94.886 129.016,95.014 129.223 C 95.142 129.431,94.793 129.600,94.237 129.600 C 92.483 129.600,90.400 130.835,90.400 131.874 C 90.400 132.499,90.166 132.800,89.680 132.800 C 88.849 132.800,87.844 135.129,88.236 136.148 C 88.910 137.906,90.800 136.912,90.800 134.800 L 90.800 132.800 92.800 132.800 C 94.667 132.800,94.800 132.733,94.800 131.800 L 94.800 130.800 199.600 130.800 L 304.400 130.800 304.400 129.859 C 304.400 128.975,304.213 128.902,301.340 128.659 C 298.156 128.390,99.497 128.423,96.491 128.693 M309.200 138.572 C 309.200 140.689,309.250 140.800,310.213 140.800 C 312.058 140.800,311.940 136.739,310.087 136.472 C 309.262 136.353,309.200 136.500,309.200 138.572 M86.496 138.395 C 86.223 138.832,86.000 139.462,86.000 139.795 C 86.000 140.128,85.754 140.400,85.454 140.400 C 84.426 140.400,82.840 146.237,83.395 147.983 C 83.598 148.623,83.994 148.800,85.227 148.800 L 86.800 148.800 86.800 144.800 L 86.800 140.800 87.800 140.800 C 88.700 140.800,88.800 140.640,88.800 139.200 C 88.800 137.367,87.436 136.890,86.496 138.395 M311.200 170.255 L 311.200 196.800 315.000 196.800 C 318.787 196.800,318.800 196.796,318.800 195.800 C 318.800 195.000,319.000 194.800,319.800 194.800 C 320.600 194.800,320.800 194.600,320.800 193.800 C 320.800 192.516,319.289 192.443,316.870 193.612 C 315.138 194.448,313.635 194.209,313.573 193.086 C 313.558 192.819,313.557 182.250,313.571 169.600 C 313.598 145.218,313.518 143.828,312.084 143.755 L 311.200 143.709 311.200 170.255 M83.867 181.467 C 83.063 182.270,84.253 188.109,85.608 190.011 C 88.508 194.084,86.088 194.800,69.423 194.800 L 57.200 194.800 57.200 195.800 L 57.200 196.800 72.000 196.800 L 86.800 196.800 86.800 195.800 C 86.800 195.000,87.000 194.800,87.800 194.800 C 88.796 194.800,88.800 194.787,88.800 191.000 C 88.800 187.213,88.796 187.200,87.800 187.200 C 86.822 187.200,86.800 187.133,86.800 184.200 L 86.800 181.200 85.467 181.200 C 84.733 181.200,84.013 181.320,83.867 181.467 M324.500 188.665 C 322.842 189.334,324.014 190.841,326.100 190.721 C 327.889 190.618,328.201 190.482,328.209 189.800 C 328.222 188.650,326.126 188.009,324.500 188.665 M34.000 189.800 C 34.000 190.700,34.160 190.800,35.600 190.800 C 37.040 190.800,37.200 190.700,37.200 189.800 C 37.200 188.900,37.040 188.800,35.600 188.800 C 34.160 188.800,34.000 188.900,34.000 189.800 M30.800 191.800 C 30.800 192.600,30.600 192.800,29.800 192.800 C 28.993 192.800,28.800 192.998,28.800 193.828 C 28.800 195.196,30.532 195.081,30.728 193.700 C 30.820 193.049,31.124 192.800,31.828 192.800 C 32.598 192.800,32.800 192.592,32.800 191.800 C 32.800 191.000,32.600 190.800,31.800 190.800 C 31.000 190.800,30.800 191.000,30.800 191.800 M329.272 191.700 C 329.459 193.013,331.200 193.054,331.200 191.745 C 331.200 190.997,330.986 190.800,330.172 190.800 C 329.335 190.800,329.168 190.967,329.272 191.700 M37.200 193.000 C 37.200 194.733,37.244 194.800,38.400 194.800 C 39.640 194.800,40.031 193.588,39.357 191.833 C 38.756 190.265,37.200 191.106,37.200 193.000 M376.800 193.436 C 376.800 194.741,375.041 194.841,353.075 194.778 L 333.400 194.723 333.273 195.761 L 333.147 196.800 354.973 196.800 L 376.800 196.800 376.800 195.800 C 376.800 195.000,377.000 194.800,377.800 194.800 C 378.644 194.800,378.800 194.613,378.800 193.604 C 378.800 192.574,378.662 192.420,377.800 192.492 C 377.069 192.552,376.800 192.806,376.800 193.436 M39.700 195.492 C 39.415 195.591,39.200 196.340,39.200 197.233 L 39.200 198.800 41.600 198.800 C 44.515 198.800,45.135 197.459,42.700 196.422 C 41.985 196.118,41.130 195.744,40.800 195.593 C 40.470 195.441,39.975 195.395,39.700 195.492 M49.995 196.747 C 49.442 196.886,49.015 197.225,49.045 197.500 C 49.075 197.775,49.123 198.180,49.150 198.400 C 49.273 199.383,52.800 198.844,52.800 197.843 C 52.800 197.316,52.515 196.776,52.167 196.643 C 51.477 196.378,51.461 196.379,49.995 196.747 M313.467 215.467 C 313.320 215.613,313.200 225.513,313.200 237.467 L 313.200 259.200 312.200 259.200 C 311.229 259.200,311.200 259.280,311.200 262.000 C 311.200 265.970,312.535 266.094,314.449 262.303 L 315.710 259.806 315.637 243.403 C 315.577 230.028,315.678 226.409,316.182 223.800 C 316.977 219.683,316.952 218.817,316.000 217.600 C 315.570 217.050,315.214 216.285,315.209 215.900 C 315.200 215.213,314.015 214.919,313.467 215.467 M21.432 217.460 C 20.888 218.879,21.184 219.824,22.200 219.908 C 23.105 219.983,23.200 219.847,23.200 218.481 C 23.200 216.883,21.934 216.152,21.432 217.460 M309.200 269.586 C 309.200 271.535,309.342 272.048,309.974 272.386 C 311.075 272.975,311.063 272.984,311.826 270.988 C 312.734 268.609,312.207 267.200,310.409 267.200 L 309.200 267.200 309.200 269.586 M19.200 318.973 C 19.200 320.734,19.243 320.800,20.392 320.800 C 22.641 320.800,22.518 317.543,20.260 317.273 C 19.250 317.153,19.200 317.232,19.200 318.973 M21.700 324.692 C 20.619 325.069,21.073 328.800,22.200 328.800 C 23.000 328.800,23.200 329.000,23.200 329.800 C 23.200 330.644,23.387 330.800,24.400 330.800 C 25.606 330.800,26.209 329.224,25.235 328.621 C 25.034 328.497,24.485 327.603,24.016 326.634 C 23.149 324.842,22.597 324.379,21.700 324.692 M25.200 333.000 C 25.200 334.653,25.281 334.800,26.200 334.800 C 27.006 334.800,27.200 334.998,27.200 335.824 C 27.200 336.763,27.325 336.838,28.700 336.724 C 30.674 336.561,30.968 335.308,29.267 334.303 C 28.627 333.925,27.879 333.072,27.603 332.408 C 26.743 330.330,25.200 330.710,25.200 333.000 M31.200 339.200 C 31.200 340.640,31.300 340.800,32.200 340.800 C 33.000 340.800,33.200 341.000,33.200 341.800 C 33.200 342.733,33.333 342.800,35.200 342.800 C 37.067 342.800,37.200 342.867,37.200 343.800 C 37.200 344.721,37.345 344.800,39.027 344.800 C 41.332 344.800,41.595 342.949,39.400 342.179 C 37.486 341.507,35.527 340.302,34.071 338.900 C 32.152 337.053,31.200 337.152,31.200 339.200 M356.092 342.149 C 354.434 342.818,354.006 343.171,354.092 343.800 C 354.245 344.935,360.505 345.035,360.723 343.905 C 360.839 343.302,358.957 341.161,358.400 341.262 C 358.290 341.282,357.251 341.681,356.092 342.149 M41.900 343.888 C 41.403 344.009,41.200 344.455,41.200 345.429 L 41.200 346.800 197.000 346.800 L 352.800 346.800 352.800 345.188 L 352.800 343.576 197.700 343.647 C 112.395 343.686,42.285 343.795,41.900 343.888 " stroke="none" fill="#999ab4" fill-rule="evenodd"></path><path id="path4" d="M45.874 59.091 C 45.331 59.396,44.334 59.489,43.243 59.337 C 41.515 59.096,41.489 59.109,41.688 60.146 L 41.889 61.200 39.171 61.200 C 35.366 61.200,32.802 62.532,31.855 65.000 C 31.726 65.337,31.166 65.785,30.610 65.996 C 30.055 66.207,29.600 66.561,29.600 66.782 C 29.600 67.004,29.150 67.298,28.600 67.436 C 28.026 67.580,27.600 67.975,27.600 68.363 C 27.600 68.736,27.413 69.227,27.184 69.456 C 26.955 69.685,26.440 70.486,26.040 71.236 C 25.535 72.181,24.981 72.639,24.238 72.728 C 23.382 72.831,23.214 73.013,23.409 73.628 C 23.824 74.936,23.249 76.000,22.126 76.000 C 21.242 76.000,21.149 76.119,21.423 76.900 C 21.596 77.395,21.667 78.700,21.579 79.800 C 21.492 80.900,21.416 106.820,21.410 137.400 C 21.398 202.718,20.786 195.858,26.700 196.629 L 28.800 196.903 28.800 194.852 C 28.800 192.930,28.863 192.800,29.800 192.800 C 30.600 192.800,30.800 192.600,30.800 191.800 C 30.800 190.900,30.960 190.800,32.400 190.800 C 33.840 190.800,34.000 190.700,34.000 189.800 C 34.000 188.900,34.160 188.800,35.600 188.800 C 37.111 188.800,37.200 188.867,37.200 190.000 C 37.200 191.011,37.356 191.200,38.192 191.200 C 39.342 191.200,39.843 192.483,39.454 194.431 C 39.274 195.330,39.353 195.603,39.768 195.516 C 40.976 195.264,43.992 196.964,43.996 197.900 C 44.000 198.741,44.171 198.800,46.608 198.800 C 49.171 198.800,49.213 198.783,49.034 197.800 C 48.826 196.653,48.942 196.630,54.100 196.787 C 57.197 196.882,57.200 196.881,57.200 195.841 L 57.200 194.800 69.423 194.800 C 86.088 194.800,88.508 194.084,85.608 190.011 C 83.978 187.722,83.016 181.799,84.200 181.345 C 85.084 181.005,85.111 148.800,84.227 148.800 C 83.912 148.800,83.537 148.432,83.395 147.983 C 82.840 146.237,84.426 140.400,85.454 140.400 C 85.754 140.400,86.006 140.085,86.013 139.700 C 86.032 138.637,86.986 137.600,87.944 137.600 C 88.918 137.600,88.967 137.459,88.379 136.361 C 87.795 135.270,88.698 132.800,89.680 132.800 C 90.166 132.800,90.400 132.499,90.400 131.874 C 90.400 130.835,92.483 129.600,94.237 129.600 C 94.793 129.600,95.151 129.445,95.035 129.256 C 94.553 128.477,103.919 128.400,198.998 128.400 C 305.258 128.400,304.400 128.388,304.400 129.859 C 304.400 130.638,304.607 130.800,305.600 130.800 C 307.763 130.800,307.260 129.067,304.900 128.388 C 301.728 127.476,98.159 127.322,94.000 128.229 C 90.095 129.080,88.733 130.144,86.971 133.726 C 86.193 135.307,85.017 137.277,84.356 138.104 C 81.732 141.392,81.812 140.680,81.679 161.925 C 81.552 182.127,81.716 184.712,83.428 189.444 C 84.887 193.474,84.443 193.605,68.000 193.989 C 56.351 194.260,55.158 194.355,52.200 195.240 C 45.483 197.249,41.779 196.283,40.286 192.130 C 39.213 189.148,37.447 187.200,35.816 187.200 C 33.951 187.200,29.769 190.067,28.438 192.258 C 26.603 195.280,24.051 195.779,22.800 193.360 C 22.028 191.868,21.653 85.614,22.404 81.245 C 22.862 78.577,24.109 75.726,25.678 73.757 C 26.185 73.121,26.954 71.905,27.387 71.056 C 27.820 70.206,28.990 68.861,29.987 68.066 C 30.984 67.271,32.624 65.725,33.631 64.631 L 35.462 62.641 39.631 62.379 C 42.301 62.211,44.447 61.844,45.600 61.358 C 48.380 60.187,346.501 60.562,350.000 61.741 C 353.219 62.826,357.964 65.447,359.800 67.154 C 360.680 67.973,362.579 69.651,364.020 70.885 C 366.939 73.383,370.051 78.706,372.271 85.000 L 373.400 88.200 373.601 135.000 C 373.781 176.848,373.871 181.969,374.448 183.400 C 375.476 185.947,376.115 190.447,375.629 191.723 C 374.906 193.625,374.180 193.704,355.000 193.969 C 334.712 194.250,334.985 194.280,332.869 191.558 C 329.022 186.611,325.269 185.727,322.200 189.044 C 320.477 190.906,317.062 191.972,315.792 191.044 C 315.023 190.482,314.994 189.808,314.800 167.333 C 314.594 143.551,314.390 140.800,312.833 140.800 C 312.679 140.800,312.224 139.180,311.822 137.200 C 311.150 133.888,311.015 133.600,310.146 133.600 C 309.332 133.600,309.200 133.795,309.200 135.000 C 309.200 136.119,309.356 136.400,309.976 136.400 C 311.146 136.400,311.381 137.098,311.391 140.599 C 311.399 143.503,311.472 143.797,312.183 143.799 C 313.501 143.801,313.597 145.593,313.571 169.600 C 313.557 182.250,313.558 192.819,313.573 193.086 C 313.635 194.209,315.138 194.448,316.870 193.612 C 317.911 193.109,319.359 192.800,320.675 192.800 C 322.675 192.800,322.800 192.741,322.800 191.800 C 322.800 191.178,323.027 190.800,323.400 190.800 C 323.769 190.800,324.000 190.425,324.000 189.827 C 324.000 188.663,325.077 188.213,326.998 188.573 C 328.120 188.784,328.310 188.976,328.219 189.811 C 328.120 190.711,328.249 190.800,329.655 190.800 C 331.188 190.800,331.625 191.799,331.258 194.469 C 331.210 194.820,372.198 194.907,374.803 194.562 C 376.563 194.328,376.800 194.184,376.800 193.348 C 376.800 192.827,376.935 192.421,377.100 192.447 C 378.613 192.686,378.800 192.401,378.800 189.855 C 378.800 187.404,378.764 187.314,377.837 187.416 C 376.346 187.579,376.344 187.520,376.034 135.800 C 375.705 80.915,376.155 86.745,371.512 77.192 C 368.562 71.123,368.439 70.944,365.991 69.192 C 364.614 68.206,362.477 66.524,361.244 65.454 C 360.010 64.384,358.550 63.307,358.000 63.061 C 357.450 62.815,355.845 61.848,354.434 60.913 C 353.023 59.977,351.313 59.117,350.634 59.002 C 347.717 58.505,46.759 58.594,45.874 59.091 M307.267 131.372 C 307.353 132.650,307.482 132.800,308.494 132.800 C 310.620 132.800,310.395 130.328,308.245 130.072 C 307.242 129.953,307.178 130.038,307.267 131.372 M21.447 221.023 C 20.935 222.355,21.169 317.162,21.686 317.989 C 22.068 318.600,22.068 319.057,21.686 320.112 C 20.966 322.105,21.035 324.949,21.797 324.656 C 22.471 324.398,23.861 325.712,24.243 326.971 C 24.381 327.427,24.766 328.109,25.097 328.486 C 25.444 328.882,25.617 329.601,25.505 330.186 C 25.344 331.027,25.464 331.200,26.207 331.200 C 26.827 331.200,27.257 331.572,27.603 332.408 C 27.879 333.072,28.632 333.927,29.278 334.308 C 30.153 334.823,30.410 335.230,30.282 335.900 C 30.172 336.476,30.307 336.800,30.655 336.800 C 30.955 336.800,31.200 336.980,31.200 337.200 C 31.200 337.420,31.542 337.600,31.960 337.600 C 32.378 337.600,33.328 338.185,34.071 338.900 C 35.527 340.302,37.486 341.507,39.400 342.179 C 40.306 342.497,40.633 342.887,40.733 343.770 C 40.832 344.635,40.958 344.791,41.219 344.370 C 41.774 343.471,352.800 343.288,352.800 344.187 C 352.800 344.524,353.115 344.800,353.500 344.800 C 354.538 344.800,354.456 342.550,353.400 342.047 C 350.271 340.557,354.915 340.607,201.800 340.384 C 37.848 340.144,51.733 340.381,45.400 337.715 C 44.080 337.160,42.559 336.537,42.019 336.332 L 41.038 335.958 42.019 336.941 C 44.679 339.607,44.244 340.237,39.991 339.881 C 36.677 339.603,35.180 338.814,34.009 336.730 C 33.501 335.826,32.258 334.622,31.010 333.824 C 28.964 332.515,28.855 332.356,28.274 329.808 C 27.715 327.357,26.296 325.200,25.243 325.200 C 24.109 325.200,23.459 320.325,24.128 316.837 C 24.498 314.909,24.818 312.357,24.840 311.165 L 24.880 309.000 25.250 310.576 C 25.869 313.218,26.100 312.766,25.850 309.400 C 25.720 307.640,25.600 288.470,25.584 266.800 C 25.564 239.937,25.416 226.700,25.117 225.200 C 24.694 223.081,23.347 220.520,22.893 220.973 C 22.772 221.094,22.453 221.010,22.184 220.786 C 21.836 220.498,21.622 220.567,21.447 221.023 M316.159 223.459 C 315.961 223.866,315.769 232.233,315.730 242.052 L 315.660 259.903 314.424 262.352 C 313.410 264.361,313.010 264.800,312.194 264.800 C 310.674 264.800,310.801 266.042,312.677 269.544 C 312.719 269.623,313.308 269.292,313.986 268.810 C 316.072 267.325,317.024 264.648,317.976 257.600 C 319.372 247.252,317.913 219.832,316.159 223.459 M28.564 323.600 C 28.708 325.021,29.020 325.630,30.048 326.492 C 31.803 327.964,31.929 327.623,30.433 325.448 C 29.749 324.453,29.007 323.226,28.785 322.720 C 28.459 321.977,28.416 322.146,28.564 323.600 M35.043 331.769 C 35.234 332.267,38.000 334.217,38.000 333.853 C 38.000 333.788,37.283 333.158,36.408 332.454 C 35.532 331.750,34.918 331.442,35.043 331.769 " stroke="none" fill="#5e77a6" fill-rule="evenodd"></path><path id="path5" d="M24.062 216.642 C 23.458 217.065,23.200 217.665,23.200 218.648 C 23.200 219.868,23.085 220.034,22.310 219.925 C 21.676 219.836,21.382 220.030,21.288 220.600 C 21.190 221.197,21.251 221.262,21.528 220.857 C 21.792 220.472,21.981 220.445,22.178 220.764 C 22.330 221.011,22.607 221.119,22.793 221.004 C 22.978 220.890,23.500 221.292,23.952 221.898 C 24.764 222.985,24.775 222.987,24.787 222.073 L 24.800 221.146 25.949 221.964 C 28.173 223.548,28.120 222.488,28.395 270.600 C 28.645 314.465,28.658 315.036,29.509 318.000 C 29.982 319.650,30.494 321.450,30.647 322.000 C 30.801 322.550,31.392 323.564,31.963 324.253 C 32.533 324.942,33.879 326.656,34.954 328.061 C 37.121 330.895,39.397 332.632,43.000 334.203 C 44.320 334.778,45.760 335.449,46.200 335.694 C 46.640 335.938,47.720 336.349,48.600 336.606 C 49.859 336.973,50.279 337.334,50.573 338.301 C 50.869 339.278,51.238 339.589,52.373 339.821 C 53.158 339.982,120.400 340.223,201.800 340.357 C 322.966 340.556,350.054 340.696,351.200 341.128 C 351.970 341.419,353.090 341.921,353.689 342.244 C 355.409 343.173,358.635 341.647,359.643 339.429 C 360.681 337.142,360.629 336.984,358.500 335.936 L 356.600 335.000 204.600 334.763 C 100.296 334.601,51.891 334.394,50.339 334.103 C 44.764 333.059,42.985 332.295,39.349 329.382 C 35.391 326.212,31.451 319.585,30.680 314.800 C 30.485 313.590,30.198 293.340,30.042 269.800 C 29.743 224.548,29.784 225.537,27.935 219.600 C 27.121 216.986,25.422 215.689,24.062 216.642 M316.690 220.695 C 316.563 221.828,316.694 223.141,317.020 223.989 C 318.379 227.525,319.015 249.901,317.976 257.600 C 316.994 264.870,316.056 267.389,313.747 268.958 C 310.948 270.860,309.867 275.447,312.080 276.034 C 315.734 277.003,321.743 269.010,322.781 261.800 C 323.299 258.200,323.307 230.252,322.791 226.682 C 321.931 220.735,317.208 216.100,316.690 220.695 M321.250 230.200 C 321.576 233.844,321.578 250.664,321.253 255.800 C 321.000 259.795,320.999 259.800,319.900 259.927 L 318.800 260.053 318.800 243.600 L 318.800 227.147 319.900 227.273 C 320.955 227.395,321.010 227.514,321.250 230.200 M315.418 269.813 C 315.252 271.332,314.800 271.517,314.800 270.067 C 314.800 269.370,314.964 268.800,315.165 268.800 C 315.365 268.800,315.480 269.256,315.418 269.813 " stroke="none" fill="#377cbc" fill-rule="evenodd"></path><path id="path6" d="M24.980 223.243 C 25.304 225.884,25.557 246.250,25.732 283.800 L 25.864 312.200 27.096 316.800 C 29.008 323.942,30.107 325.928,34.856 330.822 C 39.297 335.398,50.800 341.167,50.800 338.818 C 50.800 337.926,49.970 336.800,49.312 336.800 C 48.949 336.800,47.921 336.460,47.026 336.044 C 46.132 335.629,44.320 334.809,43.000 334.223 C 39.367 332.609,37.110 330.881,34.954 328.061 C 33.879 326.656,32.533 324.942,31.963 324.253 C 31.392 323.564,30.801 322.550,30.647 322.000 C 30.494 321.450,29.982 319.650,29.509 318.000 C 28.658 315.036,28.645 314.465,28.395 270.600 C 28.119 222.357,28.180 223.553,25.907 221.933 L 24.715 221.085 24.980 223.243 M318.800 243.600 L 318.800 260.053 319.900 259.927 C 321.266 259.769,321.508 257.124,321.503 242.400 C 321.500 229.199,321.313 227.436,319.900 227.273 L 318.800 227.147 318.800 243.600 M314.800 270.067 C 314.800 271.517,315.252 271.332,315.418 269.813 C 315.480 269.256,315.365 268.800,315.165 268.800 C 314.964 268.800,314.800 269.370,314.800 270.067 " stroke="none" fill="#2c75bc" fill-rule="evenodd"></path><path id="path7" d="M32.185 67.625 C 30.582 68.092,29.172 69.650,27.618 72.673 C 26.919 74.033,26.070 75.376,25.731 75.657 C 25.393 75.938,24.640 77.165,24.058 78.384 L 23.000 80.600 22.884 135.200 C 22.821 165.230,22.874 190.386,23.003 191.102 C 23.562 194.214,25.829 194.473,27.747 191.643 C 28.285 190.849,29.570 189.333,30.602 188.273 C 33.839 184.950,32.276 185.806,28.552 189.395 L 25.000 192.819 24.518 191.709 C 24.150 190.862,24.033 177.687,24.024 136.000 C 24.011 78.039,23.961 79.629,25.862 77.503 C 27.372 75.814,28.316 74.196,28.764 72.533 C 29.185 70.971,30.070 69.976,32.872 67.918 C 33.918 67.149,33.880 67.133,32.185 67.625 M97.000 126.109 C 97.624 126.492,120.418 126.644,200.800 126.800 L 303.800 127.000 306.577 127.940 C 310.529 129.278,311.352 130.296,312.193 134.897 C 312.627 137.274,313.189 139.030,313.763 139.800 C 316.239 143.125,316.191 142.641,316.284 165.600 C 316.331 177.150,316.472 187.175,316.599 187.877 C 317.066 190.484,319.730 190.090,323.023 186.927 L 325.345 184.696 328.246 186.132 C 330.499 187.247,331.577 188.099,333.073 189.948 C 335.904 193.445,334.890 193.288,353.599 193.135 C 369.311 193.006,370.091 192.965,370.628 192.229 C 371.338 191.259,373.546 191.342,354.000 191.605 C 335.514 191.854,335.781 191.882,334.620 189.641 C 331.757 184.119,325.452 182.518,322.096 186.462 C 320.770 188.021,319.044 188.533,318.213 187.614 C 317.629 186.969,317.550 184.641,317.464 165.546 C 317.361 142.742,317.317 142.205,315.340 139.856 C 313.730 137.942,313.172 136.500,312.816 133.323 C 312.373 129.371,311.486 128.427,306.798 126.915 L 303.400 125.820 199.800 125.719 C 117.820 125.639,96.367 125.721,97.000 126.109 M35.263 184.398 C 34.528 184.572,33.718 184.940,33.463 185.216 C 33.108 185.600,33.120 185.649,33.515 185.426 C 35.570 184.263,39.432 186.915,40.571 190.272 C 42.235 195.174,44.931 196.099,52.113 194.233 C 55.514 193.349,56.782 193.252,66.723 193.117 C 76.895 192.979,77.660 192.918,78.393 192.185 C 79.173 191.405,79.136 191.401,72.689 191.503 C 57.063 191.752,56.403 191.799,52.600 192.947 C 45.847 194.984,43.810 194.372,41.792 189.702 C 40.334 186.327,37.918 183.632,36.720 184.041 C 36.654 184.063,35.998 184.224,35.263 184.398 " stroke="none" fill="#4c4469" fill-rule="evenodd"></path><path id="path8" d="M29.554 68.378 C 28.793 69.005,27.817 70.211,27.385 71.059 C 26.953 71.907,26.185 73.121,25.678 73.757 C 24.109 75.726,22.862 78.577,22.404 81.245 C 21.653 85.614,22.028 191.868,22.800 193.360 C 24.050 195.777,26.653 195.280,28.382 192.295 C 29.762 189.911,29.757 189.145,28.371 190.785 C 27.727 191.547,27.200 192.307,27.200 192.475 C 27.200 193.436,24.904 193.956,24.074 193.183 C 22.751 191.950,22.763 192.559,22.884 135.200 L 23.000 80.600 24.058 78.384 C 24.640 77.165,25.400 75.932,25.749 75.643 C 26.097 75.354,26.971 73.948,27.691 72.520 C 28.411 71.091,29.582 69.408,30.292 68.780 C 31.999 67.271,31.335 66.910,29.554 68.378 M98.400 127.187 C 98.400 127.450,133.107 127.629,200.700 127.714 C 311.868 127.853,306.793 127.746,306.806 129.967 C 306.810 130.688,306.915 130.838,307.151 130.465 C 307.602 129.755,309.207 130.022,309.756 130.899 C 310.079 131.414,310.064 131.806,309.697 132.393 C 309.016 133.484,309.059 133.600,310.146 133.600 C 311.015 133.600,311.150 133.888,311.822 137.200 C 312.224 139.180,312.679 140.800,312.833 140.800 C 314.390 140.800,314.594 143.551,314.800 167.333 C 314.994 189.808,315.023 190.482,315.792 191.044 C 317.131 192.023,320.410 190.915,322.458 188.792 C 323.040 188.188,323.760 187.606,324.058 187.497 C 324.453 187.354,324.481 187.173,324.163 186.833 C 323.835 186.483,323.336 186.716,322.163 187.767 C 319.537 190.121,317.010 190.171,316.599 187.877 C 316.472 187.175,316.331 177.150,316.284 165.600 C 316.191 142.641,316.239 143.125,313.763 139.800 C 313.189 139.030,312.627 137.274,312.193 134.897 C 311.352 130.296,310.529 129.278,306.577 127.940 L 303.800 127.000 201.100 126.894 C 133.084 126.824,98.400 126.923,98.400 127.187 M36.000 186.167 C 36.000 186.478,35.775 186.824,35.500 186.935 C 35.225 187.046,35.482 187.151,36.071 187.168 C 37.433 187.209,39.311 189.420,40.286 192.130 C 41.782 196.292,45.510 197.260,52.200 195.224 C 55.190 194.314,56.127 194.240,66.468 194.097 C 74.776 193.982,77.583 193.821,77.726 193.449 C 78.117 192.429,56.503 193.092,52.102 194.235 C 44.932 196.099,42.234 195.171,40.571 190.272 C 39.601 187.413,36.000 184.179,36.000 186.167 M327.200 185.993 C 327.200 186.217,326.795 186.415,326.300 186.434 C 325.541 186.463,325.583 186.523,326.567 186.818 C 328.416 187.371,331.271 189.522,332.869 191.567 C 333.811 192.773,334.815 193.582,335.669 193.823 C 337.461 194.331,369.426 193.936,369.961 193.400 C 370.227 193.133,364.825 193.046,353.754 193.137 C 334.889 193.294,335.907 193.450,333.087 189.965 C 331.287 187.740,327.200 184.983,327.200 185.993 M23.848 318.286 C 23.173 318.960,24.441 325.200,25.252 325.200 C 26.297 325.200,27.717 327.366,28.274 329.808 C 28.855 332.356,28.964 332.515,31.010 333.824 C 32.258 334.622,33.501 335.826,34.009 336.730 C 35.127 338.719,36.528 339.520,39.445 339.834 L 41.800 340.087 39.800 338.238 C 37.120 335.761,37.045 335.704,35.467 334.952 C 34.712 334.591,33.620 333.547,33.041 332.630 C 32.461 331.713,31.033 330.050,29.867 328.935 C 27.821 326.978,26.765 324.883,25.375 320.019 C 25.050 318.882,24.208 317.926,23.848 318.286 " stroke="none" fill="#4c4c6c" fill-rule="evenodd"></path></g></svg>